{
	"asset":{
		"generator":"Khronos glTF Blender I/O v5.0.21",
		"version":"2.0"
	},
	"scene":0,
	"scenes":[
		{
			"name":"Scene",
			"nodes":[
				2
			]
		}
	],
	"nodes":[
		{
			"mesh":0,
			"name":"Quest2_lowpoly.001",
			"scale":[
				0.36981984972953796,
				0.4535902738571167,
				0.3698197901248932
			],
			"translation":[
				0.296389102935791,
				2.4566683769226074,
				1.0057743787765503
			]
		},
		{
			"children":[
				0
			],
			"name":"Quest2_lowpoly",
			"rotation":[
				-0.70710688829422,
				0,
				0,
				0.7071066498756409
			],
			"scale":[
				100,
				99.99998474121094,
				104.99832153320312
			],
			"translation":[
				0,
				102.78321838378906,
				-3.0959625244140625
			]
		},
		{
			"children":[
				1
			],
			"name":"RootNode",
			"scale":[
				0.27735763788223267,
				0.27735763788223267,
				0.27735763788223267
			],
			"translation":[
				-108.79081726074219,
				-66.39952087402344,
				49.31194305419922
			]
		}
	],
	"materials":[
		{
			"name":"VR_1001",
			"normalTexture":{
				"index":0
			},
			"occlusionTexture":{
				"index":1
			},
			"pbrMetallicRoughness":{
				"baseColorTexture":{
					"index":2
				},
				"metallicRoughnessTexture":{
					"index":1
				}
			}
		}
	],
	"meshes":[
		{
			"name":"Quest2_lowpoly.001",
			"primitives":[
				{
					"attributes":{
						"POSITION":0,
						"NORMAL":1,
						"TEXCOORD_0":2
					},
					"indices":3,
					"material":0
				}
			]
		}
	],
	"textures":[
		{
			"sampler":0,
			"source":0
		},
		{
			"sampler":0,
			"source":1
		},
		{
			"sampler":0,
			"source":2
		}
	],
	"images":[
		{
			"mimeType":"image/png",
			"name":"Image_2",
			"uri":"Image_2.png"
		},
		{
			"mimeType":"image/png",
			"name":"Image_1",
			"uri":"Image_1.png"
		},
		{
			"mimeType":"image/png",
			"name":"Image_0",
			"uri":"Image_0.png"
		}
	],
	"accessors":[
		{
			"bufferView":0,
			"componentType":5126,
			"count":3949,
			"max":[
				1.9678494930267334,
				4.477147579193115,
				2.2658629417419434
			],
			"min":[
				-1.961567997932434,
				-1.0931665897369385,
				-1.083752155303955
			],
			"type":"VEC3"
		},
		{
			"bufferView":1,
			"componentType":5126,
			"count":3949,
			"type":"VEC3"
		},
		{
			"bufferView":2,
			"componentType":5126,
			"count":3949,
			"type":"VEC2"
		},
		{
			"bufferView":3,
			"componentType":5123,
			"count":16458,
			"type":"SCALAR"
		}
	],
	"bufferViews":[
		{
			"buffer":0,
			"byteLength":47388,
			"byteOffset":0,
			"target":34962
		},
		{
			"buffer":0,
			"byteLength":47388,
			"byteOffset":47388,
			"target":34962
		},
		{
			"buffer":0,
			"byteLength":31592,
			"byteOffset":94776,
			"target":34962
		},
		{
			"buffer":0,
			"byteLength":32916,
			"byteOffset":126368,
			"target":34963
		}
	],
	"samplers":[
		{
			"magFilter":9729,
			"minFilter":9987
		}
	],
	"buffers":[
		{
			"byteLength":159284,
			"uri":"headset0.bin"
		}
	]
}
